<mxfile host="app.diagrams.net" modified="2024-05-18T06:10:12.035Z" agent="Mozilla/5.0 (Windows NT 10.0; Win64; x64) AppleWebKit/537.36 (KHTML, like Gecko) Chrome/124.0.0.0 Safari/537.36" etag="gWfiJAAhbN-exKn24voy" version="24.4.4" type="github">
  <diagram name="Page-1" id="ZlRObTM-CVRDYmkQqFkQ">
    <mxGraphModel dx="1786" dy="474" grid="1" gridSize="10" guides="1" tooltips="1" connect="1" arrows="1" fold="1" page="1" pageScale="1" pageWidth="850" pageHeight="1100" math="0" shadow="0">
      <root>
        <mxCell id="0" />
        <mxCell id="1" parent="0" />
        <mxCell id="pevplMKQL5ncxfmyFX9R-1" value="" style="rounded=0;whiteSpace=wrap;html=1;" vertex="1" parent="1">
          <mxGeometry x="160" y="420" width="550" height="330" as="geometry" />
        </mxCell>
        <mxCell id="pevplMKQL5ncxfmyFX9R-2" value="" style="shape=rect;html=1;verticalAlign=top;fontStyle=1;whiteSpace=wrap;align=center;fillColor=none;" vertex="1" parent="1">
          <mxGeometry x="120" y="100" width="630" height="680" as="geometry" />
        </mxCell>
        <mxCell id="pevplMKQL5ncxfmyFX9R-3" value="" style="rounded=0;whiteSpace=wrap;html=1;" vertex="1" parent="1">
          <mxGeometry x="160" y="140" width="550" height="260" as="geometry" />
        </mxCell>
        <mxCell id="pevplMKQL5ncxfmyFX9R-4" value="user" style="shape=umlActor;html=1;verticalLabelPosition=bottom;verticalAlign=top;align=center;" vertex="1" parent="1">
          <mxGeometry x="-200" y="440" width="30" height="60" as="geometry" />
        </mxCell>
        <mxCell id="pevplMKQL5ncxfmyFX9R-5" value="search restaurant&amp;nbsp;" style="ellipse;whiteSpace=wrap;html=1;" vertex="1" parent="1">
          <mxGeometry x="210" y="190" width="140" height="70" as="geometry" />
        </mxCell>
        <mxCell id="pevplMKQL5ncxfmyFX9R-6" value="view restaurant details" style="ellipse;whiteSpace=wrap;html=1;" vertex="1" parent="1">
          <mxGeometry x="210" y="290" width="140" height="70" as="geometry" />
        </mxCell>
        <mxCell id="pevplMKQL5ncxfmyFX9R-7" value="Restaurant&lt;div&gt;Manager&lt;/div&gt;&lt;div&gt;&lt;br&gt;&lt;/div&gt;" style="shape=umlActor;html=1;verticalLabelPosition=bottom;verticalAlign=top;align=center;" vertex="1" parent="1">
          <mxGeometry x="1040" y="260" width="30" height="60" as="geometry" />
        </mxCell>
        <mxCell id="pevplMKQL5ncxfmyFX9R-8" value="update restaurant&lt;div&gt;&amp;nbsp;details&lt;/div&gt;" style="ellipse;whiteSpace=wrap;html=1;" vertex="1" parent="1">
          <mxGeometry x="520" y="210" width="140" height="70" as="geometry" />
        </mxCell>
        <mxCell id="pevplMKQL5ncxfmyFX9R-9" value="get menu" style="ellipse;whiteSpace=wrap;html=1;" vertex="1" parent="1">
          <mxGeometry x="210" y="430" width="140" height="70" as="geometry" />
        </mxCell>
        <mxCell id="pevplMKQL5ncxfmyFX9R-10" value="manage menu" style="ellipse;whiteSpace=wrap;html=1;" vertex="1" parent="1">
          <mxGeometry x="530" y="435" width="140" height="70" as="geometry" />
        </mxCell>
        <mxCell id="pevplMKQL5ncxfmyFX9R-11" value="select menu items" style="ellipse;whiteSpace=wrap;html=1;" vertex="1" parent="1">
          <mxGeometry x="210" y="540" width="140" height="70" as="geometry" />
        </mxCell>
        <mxCell id="pevplMKQL5ncxfmyFX9R-12" value="view order amount" style="ellipse;whiteSpace=wrap;html=1;" vertex="1" parent="1">
          <mxGeometry x="210" y="660" width="140" height="70" as="geometry" />
        </mxCell>
        <mxCell id="pevplMKQL5ncxfmyFX9R-13" value="&amp;lt;&amp;lt;include&amp;gt;&amp;gt;" style="edgeStyle=none;html=1;endArrow=open;verticalAlign=bottom;dashed=1;labelBackgroundColor=none;rounded=0;exitX=0.5;exitY=0;exitDx=0;exitDy=0;entryX=0.5;entryY=1;entryDx=0;entryDy=0;" edge="1" parent="1" source="pevplMKQL5ncxfmyFX9R-12" target="pevplMKQL5ncxfmyFX9R-11">
          <mxGeometry width="160" relative="1" as="geometry">
            <mxPoint x="330" y="530" as="sourcePoint" />
            <mxPoint x="490" y="530" as="targetPoint" />
          </mxGeometry>
        </mxCell>
        <mxCell id="pevplMKQL5ncxfmyFX9R-14" value="&amp;lt;&amp;lt;include&amp;gt;&amp;gt;" style="edgeStyle=none;html=1;endArrow=open;verticalAlign=bottom;dashed=1;labelBackgroundColor=none;rounded=0;exitX=0.5;exitY=0;exitDx=0;exitDy=0;entryX=0.5;entryY=1;entryDx=0;entryDy=0;" edge="1" parent="1" source="pevplMKQL5ncxfmyFX9R-11" target="pevplMKQL5ncxfmyFX9R-9">
          <mxGeometry width="160" relative="1" as="geometry">
            <mxPoint x="290" y="630" as="sourcePoint" />
            <mxPoint x="290" y="580" as="targetPoint" />
          </mxGeometry>
        </mxCell>
        <mxCell id="pevplMKQL5ncxfmyFX9R-15" value="&amp;lt;&amp;lt;include&amp;gt;&amp;gt;" style="edgeStyle=none;html=1;endArrow=open;verticalAlign=bottom;dashed=1;labelBackgroundColor=none;rounded=0;exitX=0.5;exitY=0;exitDx=0;exitDy=0;entryX=0.5;entryY=1;entryDx=0;entryDy=0;" edge="1" parent="1" source="pevplMKQL5ncxfmyFX9R-6" target="pevplMKQL5ncxfmyFX9R-5">
          <mxGeometry width="160" relative="1" as="geometry">
            <mxPoint x="320" y="360" as="sourcePoint" />
            <mxPoint x="480" y="360" as="targetPoint" />
          </mxGeometry>
        </mxCell>
        <mxCell id="pevplMKQL5ncxfmyFX9R-16" value="" style="edgeStyle=none;html=1;endArrow=none;verticalAlign=bottom;rounded=1;exitX=0.5;exitY=0.5;exitDx=0;exitDy=0;exitPerimeter=0;entryX=0;entryY=0.5;entryDx=0;entryDy=0;curved=0;" edge="1" parent="1" source="pevplMKQL5ncxfmyFX9R-4" target="pevplMKQL5ncxfmyFX9R-5">
          <mxGeometry width="160" relative="1" as="geometry">
            <mxPoint x="240" y="410" as="sourcePoint" />
            <mxPoint x="400" y="410" as="targetPoint" />
            <Array as="points">
              <mxPoint x="75" y="225" />
            </Array>
          </mxGeometry>
        </mxCell>
        <mxCell id="pevplMKQL5ncxfmyFX9R-17" value="" style="edgeStyle=none;html=1;endArrow=none;verticalAlign=bottom;rounded=1;exitX=0.5;exitY=0.5;exitDx=0;exitDy=0;exitPerimeter=0;entryX=0;entryY=0.5;entryDx=0;entryDy=0;curved=0;" edge="1" parent="1" source="pevplMKQL5ncxfmyFX9R-4" target="pevplMKQL5ncxfmyFX9R-6">
          <mxGeometry width="160" relative="1" as="geometry">
            <mxPoint x="240" y="410" as="sourcePoint" />
            <mxPoint x="400" y="410" as="targetPoint" />
            <Array as="points">
              <mxPoint x="75" y="330" />
            </Array>
          </mxGeometry>
        </mxCell>
        <mxCell id="pevplMKQL5ncxfmyFX9R-18" value="" style="edgeStyle=none;html=1;endArrow=none;verticalAlign=bottom;rounded=0;exitX=0.5;exitY=0.5;exitDx=0;exitDy=0;exitPerimeter=0;entryX=0;entryY=0.5;entryDx=0;entryDy=0;" edge="1" parent="1" source="pevplMKQL5ncxfmyFX9R-4" target="pevplMKQL5ncxfmyFX9R-9">
          <mxGeometry width="160" relative="1" as="geometry">
            <mxPoint x="240" y="590" as="sourcePoint" />
            <mxPoint x="400" y="590" as="targetPoint" />
          </mxGeometry>
        </mxCell>
        <mxCell id="pevplMKQL5ncxfmyFX9R-19" value="" style="edgeStyle=none;html=1;endArrow=none;verticalAlign=bottom;rounded=1;exitX=0.5;exitY=0.5;exitDx=0;exitDy=0;exitPerimeter=0;entryX=0;entryY=0.5;entryDx=0;entryDy=0;curved=0;" edge="1" parent="1" source="pevplMKQL5ncxfmyFX9R-4" target="pevplMKQL5ncxfmyFX9R-11">
          <mxGeometry width="160" relative="1" as="geometry">
            <mxPoint x="85" y="430" as="sourcePoint" />
            <mxPoint x="220" y="435" as="targetPoint" />
            <Array as="points">
              <mxPoint x="75" y="550" />
            </Array>
          </mxGeometry>
        </mxCell>
        <mxCell id="pevplMKQL5ncxfmyFX9R-20" value="" style="edgeStyle=none;html=1;endArrow=none;verticalAlign=bottom;rounded=1;exitX=0.5;exitY=0.5;exitDx=0;exitDy=0;exitPerimeter=0;entryX=0;entryY=0.5;entryDx=0;entryDy=0;curved=0;" edge="1" parent="1" source="pevplMKQL5ncxfmyFX9R-4" target="pevplMKQL5ncxfmyFX9R-12">
          <mxGeometry width="160" relative="1" as="geometry">
            <mxPoint x="95" y="440" as="sourcePoint" />
            <mxPoint x="230" y="445" as="targetPoint" />
            <Array as="points">
              <mxPoint x="75" y="695" />
            </Array>
          </mxGeometry>
        </mxCell>
        <mxCell id="pevplMKQL5ncxfmyFX9R-21" value="" style="edgeStyle=none;html=1;endArrow=none;verticalAlign=bottom;rounded=0;entryX=0.5;entryY=0.5;entryDx=0;entryDy=0;entryPerimeter=0;exitX=1;exitY=0.5;exitDx=0;exitDy=0;" edge="1" parent="1" source="pevplMKQL5ncxfmyFX9R-8" target="pevplMKQL5ncxfmyFX9R-7">
          <mxGeometry width="160" relative="1" as="geometry">
            <mxPoint x="580" y="385" as="sourcePoint" />
            <mxPoint x="740" y="385" as="targetPoint" />
          </mxGeometry>
        </mxCell>
        <mxCell id="pevplMKQL5ncxfmyFX9R-22" value="" style="edgeStyle=none;html=1;endArrow=none;verticalAlign=bottom;rounded=0;exitX=1;exitY=0.5;exitDx=0;exitDy=0;entryX=0.5;entryY=0.5;entryDx=0;entryDy=0;entryPerimeter=0;" edge="1" parent="1" source="pevplMKQL5ncxfmyFX9R-10" target="pevplMKQL5ncxfmyFX9R-7">
          <mxGeometry width="160" relative="1" as="geometry">
            <mxPoint x="105" y="450" as="sourcePoint" />
            <mxPoint x="240" y="455" as="targetPoint" />
          </mxGeometry>
        </mxCell>
        <mxCell id="pevplMKQL5ncxfmyFX9R-23" value="&lt;b&gt;Restaurant Managment&amp;nbsp;&lt;/b&gt;" style="text;html=1;align=center;verticalAlign=middle;whiteSpace=wrap;rounded=0;" vertex="1" parent="1">
          <mxGeometry x="330" y="140" width="150" height="30" as="geometry" />
        </mxCell>
        <mxCell id="pevplMKQL5ncxfmyFX9R-24" value="&lt;b&gt;Menu Management&amp;nbsp;&lt;/b&gt;" style="text;html=1;align=center;verticalAlign=middle;whiteSpace=wrap;rounded=0;" vertex="1" parent="1">
          <mxGeometry x="360" y="430" width="150" height="30" as="geometry" />
        </mxCell>
        <mxCell id="pevplMKQL5ncxfmyFX9R-25" value="&amp;lt;&amp;lt;include&amp;gt;&amp;gt;" style="edgeStyle=none;html=1;endArrow=open;verticalAlign=bottom;dashed=1;labelBackgroundColor=none;rounded=0;exitX=0.5;exitY=0;exitDx=0;exitDy=0;entryX=0.5;entryY=1;entryDx=0;entryDy=0;" edge="1" parent="1" source="pevplMKQL5ncxfmyFX9R-9" target="pevplMKQL5ncxfmyFX9R-6">
          <mxGeometry width="160" relative="1" as="geometry">
            <mxPoint x="260" y="400" as="sourcePoint" />
            <mxPoint x="420" y="400" as="targetPoint" />
          </mxGeometry>
        </mxCell>
      </root>
    </mxGraphModel>
  </diagram>
</mxfile>
